<svg width="50" height="51" viewBox="0 0 50 51" fill="none" xmlns="http://www.w3.org/2000/svg">
<mask id="mask0_508_2236" style="mask-type:alpha" maskUnits="userSpaceOnUse" x="0" y="0" width="50" height="51">
<rect y="0.744141" width="50" height="50" fill="#FFA2A0"/>
</mask>
<g mask="url(#mask0_508_2236)">
<path d="M22.918 36.1602H27.0846V27.8268H35.418V23.6602H27.0846V15.3268H22.918V23.6602H14.5846V27.8268H22.918V36.1602ZM25.0013 46.5768C22.1194 46.5768 19.411 46.0299 16.8763 44.9362C14.3416 43.8424 12.1367 42.3581 10.2617 40.4831C8.38672 38.6081 6.90234 36.4032 5.80859 33.8685C4.71484 31.3338 4.16797 28.6254 4.16797 25.7435C4.16797 22.8615 4.71484 20.1532 5.80859 17.6185C6.90234 15.0838 8.38672 12.8789 10.2617 11.0039C12.1367 9.12891 14.3416 7.64453 16.8763 6.55078C19.411 5.45703 22.1194 4.91016 25.0013 4.91016C27.8832 4.91016 30.5916 5.45703 33.1263 6.55078C35.661 7.64453 37.8659 9.12891 39.7409 11.0039C41.6159 12.8789 43.1003 15.0838 44.194 17.6185C45.2878 20.1532 45.8346 22.8615 45.8346 25.7435C45.8346 28.6254 45.2878 31.3338 44.194 33.8685C43.1003 36.4032 41.6159 38.6081 39.7409 40.4831C37.8659 42.3581 35.661 43.8424 33.1263 44.9362C30.5916 46.0299 27.8832 46.5768 25.0013 46.5768ZM25.0013 42.4102C29.6541 42.4102 33.5951 40.7956 36.8242 37.5664C40.0534 34.3372 41.668 30.3963 41.668 25.7435C41.668 21.0907 40.0534 17.1497 36.8242 13.9206C33.5951 10.6914 29.6541 9.07682 25.0013 9.07682C20.3485 9.07682 16.4076 10.6914 13.1784 13.9206C9.94922 17.1497 8.33464 21.0907 8.33464 25.7435C8.33464 30.3963 9.94922 34.3372 13.1784 37.5664C16.4076 40.7956 20.3485 42.4102 25.0013 42.4102Z" fill="#FF5B84"/>
</g>
</svg>
