<svg width="25" height="25" viewBox="0 0 25 25" fill="none" xmlns="http://www.w3.org/2000/svg">
<mask id="mask0_391_10065" style="mask-type:alpha" maskUnits="userSpaceOnUse" x="0" y="0" width="25" height="25">
<rect x="0.953125" y="0.675781" width="24" height="24" fill="#D9D9D9"/>
</mask>
<g mask="url(#mask0_391_10065)">
<path d="M5.95312 21.6758C5.40313 21.6758 4.93229 21.4799 4.54063 21.0883C4.14896 20.6966 3.95312 20.2258 3.95312 19.6758V5.67578C3.95312 5.12578 4.14896 4.65495 4.54063 4.26328C4.93229 3.87161 5.40313 3.67578 5.95312 3.67578H14.9531V5.67578H5.95312V19.6758H19.9531V10.6758H21.9531V19.6758C21.9531 20.2258 21.7573 20.6966 21.3656 21.0883C20.974 21.4799 20.5031 21.6758 19.9531 21.6758H5.95312ZM17.9531 9.67578V7.67578H15.9531V5.67578H17.9531V3.67578H19.9531V5.67578H21.9531V7.67578H19.9531V9.67578H17.9531ZM6.95312 17.6758H18.9531L15.2031 12.6758L12.2031 16.6758L9.95312 13.6758L6.95312 17.6758Z" fill="white"/>
</g>
</svg>
