<svg width="51" height="51" viewBox="0 0 51 51" fill="none" xmlns="http://www.w3.org/2000/svg">
<mask id="mask0_391_10038" style="mask-type:alpha" maskUnits="userSpaceOnUse" x="0" y="0" width="51" height="51">
<rect x="0.164062" y="0.835938" width="50" height="50" fill="#D9D9D9"/>
</mask>
<g mask="url(#mask0_391_10038)">
<path d="M11.2231 45.6244C10.1707 45.6244 9.27995 45.2598 8.55078 44.5306C7.82161 43.8015 7.45703 42.9107 7.45703 41.8583V13.9739C7.45703 12.9215 7.82161 12.0307 8.55078 11.3016C9.27995 10.5724 10.1707 10.2078 11.2231 10.2078H14.1077V5.80078H17.3128V10.2078H33.098V5.80078H36.2229V10.2078H39.1076C40.1599 10.2078 41.0507 10.5724 41.7799 11.3016C42.509 12.0307 42.8736 12.9215 42.8736 13.9739V41.8583C42.8736 42.9107 42.509 43.8015 41.7799 44.5306C41.0507 45.2598 40.1599 45.6244 39.1076 45.6244H11.2231ZM11.2231 42.4994H39.1076C39.2678 42.4994 39.4148 42.4327 39.5483 42.2991C39.6819 42.1655 39.7487 42.0186 39.7487 41.8583V22.3072H10.582V41.8583C10.582 42.0186 10.6487 42.1655 10.7823 42.2991C10.9159 42.4327 11.0628 42.4994 11.2231 42.4994ZM10.582 19.1822H39.7487V13.9739C39.7487 13.8136 39.6819 13.6667 39.5483 13.5331C39.4148 13.3995 39.2678 13.3328 39.1076 13.3328H11.2231C11.0628 13.3328 10.9159 13.3995 10.7823 13.5331C10.6487 13.6667 10.582 13.8136 10.582 13.9739V19.1822ZM25.1653 30.1597C24.6552 30.1597 24.2205 29.9801 23.8613 29.6208C23.502 29.2616 23.3224 28.8269 23.3224 28.3168C23.3224 27.8066 23.502 27.3719 23.8613 27.0127C24.2205 26.6535 24.6552 26.4739 25.1653 26.4739C25.6755 26.4739 26.1101 26.6535 26.4694 27.0127C26.8286 27.3719 27.0082 27.8066 27.0082 28.3168C27.0082 28.8269 26.8286 29.2616 26.4694 29.6208C26.1101 29.9801 25.6755 30.1597 25.1653 30.1597ZM16.832 30.1597C16.3218 30.1597 15.8872 29.9801 15.5279 29.6208C15.1687 29.2616 14.9891 28.8269 14.9891 28.3168C14.9891 27.8066 15.1687 27.3719 15.5279 27.0127C15.8872 26.6535 16.3218 26.4739 16.832 26.4739C17.3421 26.4739 17.7768 26.6535 18.136 27.0127C18.4953 27.3719 18.6749 27.8066 18.6749 28.3168C18.6749 28.8269 18.4953 29.2616 18.136 29.6208C17.7768 29.9801 17.3421 30.1597 16.832 30.1597ZM33.4986 30.1597C32.9885 30.1597 32.5538 29.9801 32.1946 29.6208C31.8354 29.2616 31.6557 28.8269 31.6557 28.3168C31.6557 27.8066 31.8354 27.3719 32.1946 27.0127C32.5538 26.6535 32.9885 26.4739 33.4986 26.4739C34.0088 26.4739 34.4435 26.6535 34.8027 27.0127C35.1619 27.3719 35.3416 27.8066 35.3416 28.3168C35.3416 28.8269 35.1619 29.2616 34.8027 29.6208C34.4435 29.9801 34.0088 30.1597 33.4986 30.1597ZM25.1653 38.3328C24.6552 38.3328 24.2205 38.1531 23.8613 37.7939C23.502 37.4347 23.3224 37 23.3224 36.4898C23.3224 35.9797 23.502 35.545 23.8613 35.1858C24.2205 34.8265 24.6552 34.6469 25.1653 34.6469C25.6755 34.6469 26.1101 34.8265 26.4694 35.1858C26.8286 35.545 27.0082 35.9797 27.0082 36.4898C27.0082 37 26.8286 37.4347 26.4694 37.7939C26.1101 38.1531 25.6755 38.3328 25.1653 38.3328ZM16.832 38.3328C16.3218 38.3328 15.8872 38.1531 15.5279 37.7939C15.1687 37.4347 14.9891 37 14.9891 36.4898C14.9891 35.9797 15.1687 35.545 15.5279 35.1858C15.8872 34.8265 16.3218 34.6469 16.832 34.6469C17.3421 34.6469 17.7768 34.8265 18.136 35.1858C18.4953 35.545 18.6749 35.9797 18.6749 36.4898C18.6749 37 18.4953 37.4347 18.136 37.7939C17.7768 38.1531 17.3421 38.3328 16.832 38.3328ZM33.4986 38.3328C32.9885 38.3328 32.5538 38.1531 32.1946 37.7939C31.8354 37.4347 31.6557 37 31.6557 36.4898C31.6557 35.9797 31.8354 35.545 32.1946 35.1858C32.5538 34.8265 32.9885 34.6469 33.4986 34.6469C34.0088 34.6469 34.4435 34.8265 34.8027 35.1858C35.1619 35.545 35.3416 35.9797 35.3416 36.4898C35.3416 37 35.1619 37.4347 34.8027 37.7939C34.4435 38.1531 34.0088 38.3328 33.4986 38.3328Z" fill="#FF5B84"/>
</g>
</svg>
