<svg width="121" height="121" viewBox="0 0 121 121" fill="none" xmlns="http://www.w3.org/2000/svg">
<mask id="mask0_508_2232" style="mask-type:alpha" maskUnits="userSpaceOnUse" x="0" y="0" width="121" height="121">
<rect x="0.0117188" y="0.470703" width="120" height="120" fill="#D9D9D9"/>
</mask>
<g mask="url(#mask0_508_2232)">
<path d="M53 83.4824L88.25 48.2324L81.25 41.2324L53 69.4824L38.75 55.2324L31.75 62.2324L53 83.4824ZM60 110.482C53.0833 110.482 46.5833 109.17 40.5 106.545C34.4167 103.92 29.125 100.357 24.625 95.8574C20.125 91.3574 16.5625 86.0658 13.9375 79.9824C11.3125 73.8991 10 67.3991 10 60.4824C10 53.5658 11.3125 47.0658 13.9375 40.9824C16.5625 34.8991 20.125 29.6074 24.625 25.1074C29.125 20.6074 34.4167 17.0449 40.5 14.4199C46.5833 11.7949 53.0833 10.4824 60 10.4824C66.9167 10.4824 73.4167 11.7949 79.5 14.4199C85.5833 17.0449 90.875 20.6074 95.375 25.1074C99.875 29.6074 103.437 34.8991 106.062 40.9824C108.687 47.0658 110 53.5658 110 60.4824C110 67.3991 108.687 73.8991 106.062 79.9824C103.437 86.0658 99.875 91.3574 95.375 95.8574C90.875 100.357 85.5833 103.92 79.5 106.545C73.4167 109.17 66.9167 110.482 60 110.482ZM60 100.482C71.1667 100.482 80.625 96.6074 88.375 88.8574C96.125 81.1074 100 71.6491 100 60.4824C100 49.3158 96.125 39.8574 88.375 32.1074C80.625 24.3574 71.1667 20.4824 60 20.4824C48.8333 20.4824 39.375 24.3574 31.625 32.1074C23.875 39.8574 20 49.3158 20 60.4824C20 71.6491 23.875 81.1074 31.625 88.8574C39.375 96.6074 48.8333 100.482 60 100.482Z" fill="#34E0A1"/>
</g>
</svg>
