<svg width="42" height="43" viewBox="0 0 42 43" fill="none" xmlns="http://www.w3.org/2000/svg">
<mask id="mask0_391_10073" style="mask-type:alpha" maskUnits="userSpaceOnUse" x="0" y="0" width="42" height="43">
<rect x="0.0898438" y="0.550781" width="41.8203" height="41.8203" fill="#D9D9D9"/>
</mask>
<g mask="url(#mask0_391_10073)">
<path d="M12.2861 37.1426C11.3278 37.1426 10.5073 36.8013 9.82483 36.1189C9.14235 35.4364 8.80111 34.6159 8.80111 33.6576V11.0049H7.05859V7.51986H15.7712V5.77734H26.2262V7.51986H34.9388V11.0049H33.1963V33.6576C33.1963 34.6159 32.855 35.4364 32.1726 36.1189C31.4901 36.8013 30.6696 37.1426 29.7113 37.1426H12.2861ZM29.7113 11.0049H12.2861V33.6576H29.7113V11.0049ZM15.7712 30.1725H19.2562V14.4899H15.7712V30.1725ZM22.7412 30.1725H26.2262V14.4899H22.7412V30.1725Z" fill="#FF5B84"/>
</g>
</svg>
