<svg width="53" height="53" viewBox="0 0 53 53" fill="none" xmlns="http://www.w3.org/2000/svg">
<mask id="mask0_391_10014" style="mask-type:alpha" maskUnits="userSpaceOnUse" x="0" y="0" width="53" height="53">
<rect x="0.675781" y="0.722656" width="52.043" height="52.043" fill="#D9D9D9"/>
</mask>
<g mask="url(#mask0_391_10014)">
<path d="M11.5166 41.9238H14.6067L35.8033 20.7272L32.7133 17.6371L11.5166 38.8338V41.9238ZM7.17969 46.2607V37.0448L35.8033 8.47538C36.237 8.07783 36.7159 7.77063 37.2399 7.55378C37.764 7.33694 38.3151 7.22852 38.8934 7.22852C39.4716 7.22852 40.0318 7.33694 40.5739 7.55378C41.116 7.77063 41.5859 8.0959 41.9834 8.52959L44.9651 11.5654C45.3987 11.963 45.715 12.4328 45.9138 12.9749C46.1125 13.517 46.2119 14.0592 46.2119 14.6013C46.2119 15.1795 46.1125 15.7307 45.9138 16.2547C45.715 16.7788 45.3987 17.2576 44.9651 17.6913L16.3956 46.2607H7.17969ZM34.2312 19.2092L32.7133 17.6371L35.8033 20.7272L34.2312 19.2092Z" fill="#FF5B84"/>
</g>
</svg>
