<svg width="121" height="121" viewBox="0 0 121 121" fill="none" xmlns="http://www.w3.org/2000/svg">
<mask id="mask0_510_2372" style="mask-type:alpha" maskUnits="userSpaceOnUse" x="0" y="0" width="121" height="121">
<rect x="0.59375" y="0.0585938" width="120" height="120" fill="#D9D9D9"/>
</mask>
<g mask="url(#mask0_510_2372)">
<path d="M60.5938 85.0586C62.0104 85.0586 63.1979 84.5794 64.1563 83.6211C65.1146 82.6628 65.5938 81.4753 65.5938 80.0586C65.5938 78.6419 65.1146 77.4544 64.1563 76.4961C63.1979 75.5378 62.0104 75.0586 60.5938 75.0586C59.1771 75.0586 57.9896 75.5378 57.0313 76.4961C56.0729 77.4544 55.5938 78.6419 55.5938 80.0586C55.5938 81.4753 56.0729 82.6628 57.0313 83.6211C57.9896 84.5794 59.1771 85.0586 60.5938 85.0586ZM55.5938 65.0586H65.5938V35.0586H55.5938V65.0586ZM60.5938 110.059C53.6771 110.059 47.1771 108.746 41.0937 106.121C35.0104 103.496 29.7187 99.9336 25.2187 95.4336C20.7187 90.9336 17.1563 85.6419 14.5313 79.5586C11.9062 73.4753 10.5938 66.9753 10.5938 60.0586C10.5938 53.1419 11.9062 46.6419 14.5313 40.5586C17.1563 34.4753 20.7187 29.1836 25.2187 24.6836C29.7187 20.1836 35.0104 16.6211 41.0937 13.9961C47.1771 11.3711 53.6771 10.0586 60.5938 10.0586C67.5104 10.0586 74.0104 11.3711 80.0938 13.9961C86.1771 16.6211 91.4688 20.1836 95.9688 24.6836C100.469 29.1836 104.031 34.4753 106.656 40.5586C109.281 46.6419 110.594 53.1419 110.594 60.0586C110.594 66.9753 109.281 73.4753 106.656 79.5586C104.031 85.6419 100.469 90.9336 95.9688 95.4336C91.4688 99.9336 86.1771 103.496 80.0938 106.121C74.0104 108.746 67.5104 110.059 60.5938 110.059ZM60.5938 100.059C71.7604 100.059 81.2188 96.1836 88.9688 88.4336C96.7188 80.6836 100.594 71.2253 100.594 60.0586C100.594 48.8919 96.7188 39.4336 88.9688 31.6836C81.2188 23.9336 71.7604 20.0586 60.5938 20.0586C49.4271 20.0586 39.9688 23.9336 32.2188 31.6836C24.4688 39.4336 20.5938 48.8919 20.5938 60.0586C20.5938 71.2253 24.4688 80.6836 32.2188 88.4336C39.9688 96.1836 49.4271 100.059 60.5938 100.059Z" fill="#FF5B84"/>
</g>
</svg>
