<svg width="50" height="50" viewBox="0 0 50 50" fill="none" xmlns="http://www.w3.org/2000/svg">
<mask id="mask0_391_10026" style="mask-type:alpha" maskUnits="userSpaceOnUse" x="0" y="0" width="50" height="50">
<rect width="50" height="50" fill="#D9D9D9"/>
</mask>
<g mask="url(#mask0_391_10026)">
<path d="M14.582 45.8327V26.7702C12.8112 26.2841 11.3268 25.3119 10.1289 23.8535C8.93099 22.3952 8.33203 20.6938 8.33203 18.7494V4.16602H12.4987V18.7494H14.582V4.16602H18.7487V18.7494H20.832V4.16602H24.9987V18.7494C24.9987 20.6938 24.3997 22.3952 23.2018 23.8535C22.0039 25.3119 20.5195 26.2841 18.7487 26.7702V45.8327H14.582ZM35.4154 45.8327V29.166H29.1654V14.5827C29.1654 11.7007 30.181 9.24414 32.2122 7.21289C34.2435 5.18164 36.7001 4.16602 39.582 4.16602V45.8327H35.4154Z" fill="#FF5B84"/>
</g>
</svg>
