<svg width="43" height="43" viewBox="0 0 43 43" fill="none" xmlns="http://www.w3.org/2000/svg">
<mask id="mask0_537_2309" style="mask-type:alpha" maskUnits="userSpaceOnUse" x="0" y="0" width="43" height="43">
<path d="M42.5 0.841797H0.5V42.8418H42.5V0.841797Z" fill="#D9D9D9"/>
</mask>
<g mask="url(#mask0_537_2309)">
<path d="M21.5 37.3062C21.0917 37.3062 20.676 37.2333 20.2531 37.0875C19.8302 36.9416 19.4583 36.7083 19.1375 36.3875L16.1188 33.6312C13.0271 30.802 10.2344 27.9948 7.74063 25.2093C5.24687 22.4239 4 19.3541 4 16C4 13.2583 4.91875 10.9688 6.75625 9.13125C8.59375 7.29375 10.8833 6.375 13.625 6.375C15.1708 6.375 16.6292 6.70312 18 7.35937C19.3708 8.01562 20.5375 8.9125 21.5 10.05C22.4625 8.9125 23.6292 8.01562 25 7.35937C26.3708 6.70312 27.8292 6.375 29.375 6.375C32.1167 6.375 34.4063 7.29375 36.2438 9.13125C38.0813 10.9688 39 13.2583 39 16C39 19.3541 37.7604 22.4312 35.2812 25.2312C32.8021 28.0312 29.9875 30.8458 26.8375 33.675L23.8625 36.3875C23.5417 36.7083 23.1698 36.9416 22.7469 37.0875C22.324 37.2333 21.9083 37.3062 21.5 37.3062ZM19.8375 13.55C18.9917 12.3541 18.0875 11.4427 17.125 10.8156C16.1625 10.1885 14.9958 9.875 13.625 9.875C11.875 9.875 10.4167 10.4583 9.25 11.625C8.08333 12.7916 7.5 14.25 7.5 16C7.5 17.5166 8.03958 19.1281 9.11875 20.8343C10.1979 22.5406 11.4885 24.1958 12.9906 25.8C14.4927 27.4041 16.0385 28.9062 17.6281 30.3062C19.2177 31.7062 20.5083 32.8583 21.5 33.7625C22.4917 32.8583 23.7823 31.7062 25.3719 30.3062C26.9615 28.9062 28.5073 27.4041 30.0094 25.8C31.5115 24.1958 32.8021 22.5406 33.8813 20.8343C34.9604 19.1281 35.5 17.5166 35.5 16C35.5 14.25 34.9167 12.7916 33.75 11.625C32.5833 10.4583 31.125 9.875 29.375 9.875C28.0042 9.875 26.8375 10.1885 25.875 10.8156C24.9125 11.4427 24.0083 12.3541 23.1625 13.55C22.9583 13.8416 22.7104 14.0604 22.4188 14.2062C22.1271 14.352 21.8208 14.425 21.5 14.425C21.1792 14.425 20.8729 14.352 20.5813 14.2062C20.2896 14.0604 20.0417 13.8416 19.8375 13.55Z" fill="#FF5B84"/>
</g>
</svg>
