<svg width="43" height="43" viewBox="0 0 43 43" fill="none" xmlns="http://www.w3.org/2000/svg">
<mask id="mask0_1468_2791" style="mask-type:alpha" maskUnits="userSpaceOnUse" x="0" y="0" width="43" height="43">
<path d="M42.1562 0.841797H0.15625V42.8418H42.1562V0.841797Z" fill="#D9D9D9"/>
</mask>
<g mask="url(#mask0_1468_2791)">
<path d="M21.1562 37.3062C20.7479 37.3062 20.3322 37.2333 19.9093 37.0875C19.4864 36.9416 19.1146 36.7083 18.7938 36.3875L15.7751 33.6312C12.6834 30.802 9.89063 27.9948 7.39688 25.2093C4.90312 22.4239 3.65625 19.3541 3.65625 16C3.65625 13.2583 4.575 10.9688 6.4125 9.13125C8.25 7.29375 10.5396 6.375 13.2812 6.375C14.827 6.375 16.2854 6.70312 17.6562 7.35937C19.0271 8.01562 20.1938 8.9125 21.1562 10.05C22.1187 8.9125 23.2854 8.01562 24.6562 7.35937C26.0271 6.70312 27.4855 6.375 29.0312 6.375C31.7729 6.375 34.0626 7.29375 35.9001 9.13125C37.7376 10.9688 38.6562 13.2583 38.6562 16C38.6562 19.3541 37.4167 22.4312 34.9375 25.2312C32.4584 28.0312 29.6437 30.8458 26.4937 33.675L23.5187 36.3875C23.1979 36.7083 22.8261 36.9416 22.4032 37.0875C21.9803 37.2333 21.5646 37.3062 21.1562 37.3062ZM19.4937 13.55C18.6479 12.3541 17.7437 11.4427 16.7812 10.8156C15.8188 10.1885 14.6521 9.875 13.2812 9.875C11.5312 9.875 10.0729 10.4583 8.90625 11.625C7.73958 12.7916 7.15625 14.25 7.15625 16C7.15625 17.5166 7.69583 19.1281 8.775 20.8343C9.85417 22.5406 11.1447 24.1958 12.6468 25.8C14.1489 27.4041 15.6947 28.9062 17.2843 30.3062C18.8739 31.7062 20.1646 32.8583 21.1562 33.7625C22.1479 32.8583 23.4386 31.7062 25.0282 30.3062C26.6178 28.9062 28.1635 27.4041 29.6656 25.8C31.1677 24.1958 32.4584 22.5406 33.5376 20.8343C34.6167 19.1281 35.1562 17.5166 35.1562 16C35.1562 14.25 34.573 12.7916 33.4062 11.625C32.2395 10.4583 30.7812 9.875 29.0312 9.875C27.6604 9.875 26.4937 10.1885 25.5312 10.8156C24.5688 11.4427 23.6646 12.3541 22.8188 13.55C22.6146 13.8416 22.3667 14.0604 22.0751 14.2062C21.7834 14.352 21.4771 14.425 21.1562 14.425C20.8354 14.425 20.5292 14.352 20.2376 14.2062C19.9459 14.0604 19.6979 13.8416 19.4937 13.55Z" fill="#FF5B84"/>
</g>
<mask id="mask1_1468_2791" style="mask-type:alpha" maskUnits="userSpaceOnUse" x="0" y="0" width="43" height="43">
<path d="M42.1562 0.841797H0.15625V42.8418H42.1562V0.841797Z" fill="#D9D9D9"/>
</mask>
<g mask="url(#mask1_1468_2791)">
<path d="M21.1562 37.3082C20.7479 37.3082 20.3322 37.2353 19.9093 37.0895C19.4864 36.9436 19.1146 36.7103 18.7938 36.3895L15.7751 33.6332C12.6834 30.804 9.89063 27.9968 7.39688 25.2113C4.90312 22.4259 3.65625 19.3561 3.65625 16.002C3.65625 13.2603 4.575 10.9707 6.4125 9.1332C8.25 7.2957 10.5396 6.37695 13.2812 6.37695C14.827 6.37695 16.2854 6.70507 17.6562 7.36132C19.0271 8.01757 20.1938 8.91445 21.1562 10.052C22.1187 8.91445 23.2854 8.01757 24.6562 7.36132C26.0271 6.70507 27.4855 6.37695 29.0312 6.37695C31.7729 6.37695 34.0626 7.2957 35.9001 9.1332C37.7376 10.9707 38.6562 13.2603 38.6562 16.002C38.6562 19.3561 37.4167 22.4332 34.9375 25.2332C32.4584 28.0332 29.6437 30.8478 26.4937 33.677L23.5187 36.3895C23.1979 36.7103 22.8261 36.9436 22.4032 37.0895C21.9803 37.2353 21.5646 37.3082 21.1562 37.3082Z" fill="#FF5B84"/>
</g>
</svg>
