<svg width="50" height="50" viewBox="0 0 50 50" fill="none" xmlns="http://www.w3.org/2000/svg">
<mask id="mask0_391_10011" style="mask-type:alpha" maskUnits="userSpaceOnUse" x="0" y="0" width="50" height="50">
<rect width="50" height="50" fill="#D9D9D9"/>
</mask>
<g mask="url(#mask0_391_10011)">
<path d="M10.4154 41.6667V22.6042L4.58203 27.0833L2.08203 23.75L24.9987 6.25L33.332 12.6042V8.33333H39.582V17.3958L47.9154 23.75L45.4154 27.0833L39.582 22.6042V41.6667H27.082V29.1667H22.9154V41.6667H10.4154ZM14.582 37.5H18.7487V25H31.2487V37.5H35.4154V19.4271L24.9987 11.5104L14.582 19.4271V37.5ZM20.832 20.8854H29.1654C29.1654 19.7743 28.7487 18.8628 27.9154 18.151C27.082 17.4392 26.1098 17.0833 24.9987 17.0833C23.8876 17.0833 22.9154 17.4392 22.082 18.151C21.2487 18.8628 20.832 19.7743 20.832 20.8854Z" fill="#FF5B84"/>
</g>
</svg>
