<svg width="45" height="46" viewBox="0 0 45 46" fill="none" xmlns="http://www.w3.org/2000/svg">
<mask id="mask0_391_10020" style="mask-type:alpha" maskUnits="userSpaceOnUse" x="0" y="0" width="45" height="46">
<rect x="0.34375" y="0.675781" width="44.5438" height="44.5438" fill="#D9D9D9"/>
</mask>
<g mask="url(#mask0_391_10020)">
<path d="M22.6175 22.9486C23.6383 22.9486 24.5121 22.5851 25.2391 21.8582C25.966 21.1313 26.3295 20.2574 26.3295 19.2366C26.3295 18.2158 25.966 17.342 25.2391 16.615C24.5121 15.8881 23.6383 15.5246 22.6175 15.5246C21.5967 15.5246 20.7228 15.8881 19.9959 16.615C19.269 17.342 18.9055 18.2158 18.9055 19.2366C18.9055 20.2574 19.269 21.1313 19.9959 21.8582C20.7228 22.5851 21.5967 22.9486 22.6175 22.9486ZM22.6175 41.5085C17.6372 37.2707 13.9175 33.3344 11.4583 29.6998C8.99913 26.0651 7.76953 22.7011 7.76953 19.6078C7.76953 14.9678 9.26206 11.2713 12.2471 8.51826C15.2322 5.7652 18.689 4.38867 22.6175 4.38867C26.546 4.38867 30.0028 5.7652 32.9878 8.51826C35.9729 11.2713 37.4654 14.9678 37.4654 19.6078C37.4654 22.7011 36.2358 26.0651 33.7766 29.6998C31.3174 33.3344 27.5977 37.2707 22.6175 41.5085Z" fill="#FF5B84"/>
</g>
</svg>
