<svg width="36" height="36" viewBox="0 0 36 36" fill="none" xmlns="http://www.w3.org/2000/svg">
<g clip-path="url(#clip0_510_2565)">
<path d="M7.01724 27.4307C8.58303 26.2687 10.2887 25.3512 12.1344 24.6782C13.98 24.0051 15.9443 23.6685 18.0273 23.6685C20.1103 23.6685 22.0747 24.0051 23.9203 24.6782C25.7659 25.3512 27.4717 26.2687 29.0375 27.4307C30.1829 26.1719 31.0904 24.7148 31.7599 23.0592C32.4295 21.4037 32.7642 19.6111 32.7642 17.6816C32.7642 13.5983 31.3289 10.1213 28.4583 7.25069C25.5877 4.38007 22.1107 2.94476 18.0273 2.94476C13.944 2.94476 10.467 4.38007 7.59639 7.25069C4.72577 10.1213 3.29046 13.5983 3.29046 17.6816C3.29046 19.6111 3.62524 21.4037 4.29478 23.0592C4.96433 24.7148 5.87181 26.1719 7.01724 27.4307ZM18.0279 19.0632C16.346 19.0632 14.9277 18.4859 13.7728 17.3315C12.618 16.1769 12.0405 14.7588 12.0405 13.0769C12.0405 11.395 12.6178 9.97668 13.7723 8.82183C14.9268 7.66698 16.3449 7.08955 18.0268 7.08955C19.7087 7.08955 21.127 7.6668 22.2819 8.82128C23.4367 9.97579 24.0142 11.394 24.0142 13.0758C24.0142 14.7577 23.4369 16.1761 22.2824 17.3309C21.1279 18.4858 19.7097 19.0632 18.0279 19.0632ZM18.0273 35.1816C15.5972 35.1816 13.3176 34.7246 11.1886 33.8106C9.05951 32.8967 7.20736 31.6521 5.63211 30.0769C4.05689 28.5016 2.8123 26.6495 1.89833 24.5204C0.98434 22.3914 0.527344 20.1118 0.527344 17.6816C0.527344 15.2515 0.98434 12.9719 1.89833 10.8429C2.8123 8.7138 4.05689 6.86165 5.63211 5.2864C7.20736 3.71119 9.05951 2.46659 11.1886 1.55263C13.3176 0.638638 15.5972 0.181641 18.0273 0.181641C20.4575 0.181641 22.7371 0.638638 24.8661 1.55263C26.9952 2.46659 28.8473 3.71119 30.4226 5.2864C31.9978 6.86165 33.2424 8.7138 34.1564 10.8429C35.0703 12.9719 35.5273 15.2515 35.5273 17.6816C35.5273 20.1118 35.0703 22.3914 34.1564 24.5204C33.2424 26.6495 31.9978 28.5016 30.4226 30.0769C28.8473 31.6521 26.9952 32.8967 24.8661 33.8106C22.7371 34.7246 20.4575 35.1816 18.0273 35.1816Z" fill="#FF5B84"/>
</g>
<defs>
<clipPath id="clip0_510_2565">
<rect x="0.527344" y="0.181641" width="35" height="35" rx="17.5" fill="white"/>
</clipPath>
</defs>
</svg>
