<svg width="36" height="36" viewBox="0 0 36 36" fill="none" xmlns="http://www.w3.org/2000/svg">
<rect x="1.77734" y="1.43164" width="32.5" height="32.5" rx="16.25" stroke="#FF5B84" stroke-width="2.5"/>
<path d="M18.0252 24.8682L17.1817 24.1099C15.9149 22.9607 14.8674 21.9732 14.039 21.1473C13.2107 20.3214 12.5543 19.5864 12.0699 18.9422C11.5854 18.2981 11.2469 17.7105 11.0544 17.1795C10.8619 16.6485 10.7656 16.1097 10.7656 15.563C10.7656 14.4785 11.1313 13.5706 11.8626 12.8392C12.594 12.1079 13.5019 11.7422 14.5864 11.7422C15.2536 11.7422 15.8841 11.8982 16.4778 12.2103C17.0714 12.5223 17.5873 12.9698 18.0252 13.5527C18.4631 12.9698 18.9789 12.5223 19.5726 12.2103C20.1663 11.8982 20.7968 11.7422 21.4639 11.7422C22.5485 11.7422 23.4564 12.1079 24.1877 12.8392C24.9191 13.5706 25.2848 14.4785 25.2848 15.563C25.2848 16.1097 25.1885 16.6485 24.996 17.1795C24.8035 17.7105 24.465 18.2981 23.9805 18.9422C23.4961 19.5864 22.8409 20.3214 22.015 21.1473C21.1891 21.9732 20.1403 22.9607 18.8687 24.1099L18.0252 24.8682Z" fill="#FF5B84"/>
</svg>
