<svg width="43" height="43" viewBox="0 0 43 43" fill="none" xmlns="http://www.w3.org/2000/svg">
<mask id="mask0_391_10079" style="mask-type:alpha" maskUnits="userSpaceOnUse" x="0" y="0" width="43" height="43">
<rect x="0.113281" y="0.675781" width="42" height="42" fill="#D9D9D9"/>
</mask>
<g mask="url(#mask0_391_10079)">
<path d="M31.6133 39.1758C30.1549 39.1758 28.9154 38.6654 27.8945 37.6445C26.8737 36.6237 26.3633 35.3841 26.3633 33.9258C26.3633 33.7216 26.3779 33.5102 26.407 33.2914C26.4362 33.0727 26.4799 32.8758 26.5383 32.7008L14.2008 25.5258C13.7049 25.9633 13.1508 26.306 12.5383 26.5539C11.9258 26.8018 11.2841 26.9258 10.6133 26.9258C9.15495 26.9258 7.91536 26.4154 6.89453 25.3945C5.8737 24.3737 5.36328 23.1341 5.36328 21.6758C5.36328 20.2174 5.8737 18.9779 6.89453 17.957C7.91536 16.9362 9.15495 16.4258 10.6133 16.4258C11.2841 16.4258 11.9258 16.5497 12.5383 16.7977C13.1508 17.0456 13.7049 17.3883 14.2008 17.8258L26.5383 10.6508C26.4799 10.4758 26.4362 10.2789 26.407 10.0602C26.3779 9.84141 26.3633 9.62995 26.3633 9.42578C26.3633 7.96745 26.8737 6.72786 27.8945 5.70703C28.9154 4.6862 30.1549 4.17578 31.6133 4.17578C33.0716 4.17578 34.3112 4.6862 35.332 5.70703C36.3529 6.72786 36.8633 7.96745 36.8633 9.42578C36.8633 10.8841 36.3529 12.1237 35.332 13.1445C34.3112 14.1654 33.0716 14.6758 31.6133 14.6758C30.9424 14.6758 30.3008 14.5518 29.6883 14.3039C29.0758 14.056 28.5216 13.7133 28.0258 13.2758L15.6883 20.4508C15.7466 20.6258 15.7904 20.8227 15.8195 21.0414C15.8487 21.2602 15.8633 21.4716 15.8633 21.6758C15.8633 21.8799 15.8487 22.0914 15.8195 22.3102C15.7904 22.5289 15.7466 22.7258 15.6883 22.9008L28.0258 30.0758C28.5216 29.6383 29.0758 29.2956 29.6883 29.0477C30.3008 28.7997 30.9424 28.6758 31.6133 28.6758C33.0716 28.6758 34.3112 29.1862 35.332 30.207C36.3529 31.2279 36.8633 32.4674 36.8633 33.9258C36.8633 35.3841 36.3529 36.6237 35.332 37.6445C34.3112 38.6654 33.0716 39.1758 31.6133 39.1758ZM31.6133 11.1758C32.1091 11.1758 32.5247 11.0081 32.8602 10.6727C33.1956 10.3372 33.3633 9.92161 33.3633 9.42578C33.3633 8.92995 33.1956 8.51432 32.8602 8.17891C32.5247 7.84349 32.1091 7.67578 31.6133 7.67578C31.1174 7.67578 30.7018 7.84349 30.3664 8.17891C30.031 8.51432 29.8633 8.92995 29.8633 9.42578C29.8633 9.92161 30.031 10.3372 30.3664 10.6727C30.7018 11.0081 31.1174 11.1758 31.6133 11.1758ZM10.6133 23.4258C11.1091 23.4258 11.5247 23.2581 11.8602 22.9227C12.1956 22.5872 12.3633 22.1716 12.3633 21.6758C12.3633 21.1799 12.1956 20.7643 11.8602 20.4289C11.5247 20.0935 11.1091 19.9258 10.6133 19.9258C10.1174 19.9258 9.70182 20.0935 9.36641 20.4289C9.03099 20.7643 8.86328 21.1799 8.86328 21.6758C8.86328 22.1716 9.03099 22.5872 9.36641 22.9227C9.70182 23.2581 10.1174 23.4258 10.6133 23.4258ZM31.6133 35.6758C32.1091 35.6758 32.5247 35.5081 32.8602 35.1727C33.1956 34.8372 33.3633 34.4216 33.3633 33.9258C33.3633 33.4299 33.1956 33.0143 32.8602 32.6789C32.5247 32.3435 32.1091 32.1758 31.6133 32.1758C31.1174 32.1758 30.7018 32.3435 30.3664 32.6789C30.031 33.0143 29.8633 33.4299 29.8633 33.9258C29.8633 34.4216 30.031 34.8372 30.3664 35.1727C30.7018 35.5081 31.1174 35.6758 31.6133 35.6758Z" fill="#FF5B84"/>
</g>
</svg>
