<svg width="50" height="50" viewBox="0 0 50 50" fill="none" xmlns="http://www.w3.org/2000/svg">
<mask id="mask0_391_10023" style="mask-type:alpha" maskUnits="userSpaceOnUse" x="0" y="0" width="50" height="50">
<rect width="50" height="50" fill="#D9D9D9"/>
</mask>
<g mask="url(#mask0_391_10023)">
<path d="M14.582 45.8327C13.4362 45.8327 12.4553 45.4247 11.6393 44.6087C10.8234 43.7928 10.4154 42.8119 10.4154 41.666C10.4154 40.5202 10.8234 39.5393 11.6393 38.7233C12.4553 37.9073 13.4362 37.4994 14.582 37.4994C15.7279 37.4994 16.7088 37.9073 17.5247 38.7233C18.3407 39.5393 18.7487 40.5202 18.7487 41.666C18.7487 42.8119 18.3407 43.7928 17.5247 44.6087C16.7088 45.4247 15.7279 45.8327 14.582 45.8327ZM35.4154 45.8327C34.2695 45.8327 33.2886 45.4247 32.4727 44.6087C31.6567 43.7928 31.2487 42.8119 31.2487 41.666C31.2487 40.5202 31.6567 39.5393 32.4727 38.7233C33.2886 37.9073 34.2695 37.4994 35.4154 37.4994C36.5612 37.4994 37.5421 37.9073 38.3581 38.7233C39.174 39.5393 39.582 40.5202 39.582 41.666C39.582 42.8119 39.174 43.7928 38.3581 44.6087C37.5421 45.4247 36.5612 45.8327 35.4154 45.8327ZM12.8112 12.4993L17.8112 22.916H32.3945L38.1237 12.4993H12.8112ZM10.832 8.33268H41.5612C42.3598 8.33268 42.9674 8.68859 43.3841 9.40039C43.8008 10.1122 43.8181 10.8327 43.4362 11.5618L36.0404 24.8952C35.6584 25.5896 35.1463 26.1278 34.5039 26.5098C33.8615 26.8917 33.1584 27.0827 32.3945 27.0827H16.8737L14.582 31.2494H39.582V35.416H14.582C13.0195 35.416 11.839 34.7303 11.0404 33.3587C10.2418 31.9872 10.207 30.6244 10.9362 29.2702L13.7487 24.166L6.2487 8.33268H2.08203V4.16602H8.85286L10.832 8.33268Z" fill="#FF5B84"/>
</g>
</svg>
