<svg width="50" height="50" viewBox="0 0 50 50" fill="none" xmlns="http://www.w3.org/2000/svg">
<mask id="mask0_391_10029" style="mask-type:alpha" maskUnits="userSpaceOnUse" x="0" y="0" width="50" height="50">
<rect width="50" height="50" fill="#D9D9D9"/>
</mask>
<g mask="url(#mask0_391_10029)">
<path d="M10.418 45.8327V4.16602H14.5846V8.33268H43.7513L39.5846 18.7494L43.7513 29.166H14.5846V45.8327H10.418ZM26.043 22.916C27.1888 22.916 28.1697 22.508 28.9857 21.6921C29.8016 20.8761 30.2096 19.8952 30.2096 18.7494C30.2096 17.6035 29.8016 16.6226 28.9857 15.8066C28.1697 14.9907 27.1888 14.5827 26.043 14.5827C24.8971 14.5827 23.9162 14.9907 23.1003 15.8066C22.2843 16.6226 21.8763 17.6035 21.8763 18.7494C21.8763 19.8952 22.2843 20.8761 23.1003 21.6921C23.9162 22.508 24.8971 22.916 26.043 22.916ZM14.5846 24.9994H37.6055L35.1055 18.7494L37.6055 12.4993H14.5846V24.9994Z" fill="#FF5B84"/>
</g>
</svg>
