<svg width="50" height="50" viewBox="0 0 50 50" fill="none" xmlns="http://www.w3.org/2000/svg">
<mask id="mask0_391_10008" style="mask-type:alpha" maskUnits="userSpaceOnUse" x="0" y="0" width="50" height="50">
<rect width="50" height="50" fill="#D9D9D9"/>
</mask>
<g mask="url(#mask0_391_10008)">
<path d="M12.5 39.5827V41.666C12.5 42.2563 12.3003 42.7511 11.901 43.1504C11.5017 43.5497 11.0069 43.7493 10.4167 43.7493H8.33333C7.74306 43.7493 7.24826 43.5497 6.84896 43.1504C6.44965 42.7511 6.25 42.2563 6.25 41.666V24.9993L10.625 12.4993C10.8333 11.8743 11.2066 11.3709 11.7448 10.9889C12.283 10.607 12.8819 10.416 13.5417 10.416H36.4583C37.1181 10.416 37.717 10.607 38.2552 10.9889C38.7934 11.3709 39.1667 11.8743 39.375 12.4993L43.75 24.9993V41.666C43.75 42.2563 43.5503 42.7511 43.151 43.1504C42.7517 43.5497 42.2569 43.7493 41.6667 43.7493H39.5833C38.9931 43.7493 38.4983 43.5497 38.099 43.1504C37.6997 42.7511 37.5 42.2563 37.5 41.666V39.5827H12.5ZM12.0833 20.8327H37.9167L35.7292 14.5827H14.2708L12.0833 20.8327ZM15.625 33.3327C16.4931 33.3327 17.2309 33.0289 17.8385 32.4212C18.4462 31.8136 18.75 31.0757 18.75 30.2077C18.75 29.3396 18.4462 28.6018 17.8385 27.9941C17.2309 27.3865 16.4931 27.0827 15.625 27.0827C14.7569 27.0827 14.0191 27.3865 13.4115 27.9941C12.8038 28.6018 12.5 29.3396 12.5 30.2077C12.5 31.0757 12.8038 31.8136 13.4115 32.4212C14.0191 33.0289 14.7569 33.3327 15.625 33.3327ZM34.375 33.3327C35.2431 33.3327 35.9809 33.0289 36.5885 32.4212C37.1962 31.8136 37.5 31.0757 37.5 30.2077C37.5 29.3396 37.1962 28.6018 36.5885 27.9941C35.9809 27.3865 35.2431 27.0827 34.375 27.0827C33.5069 27.0827 32.7691 27.3865 32.1615 27.9941C31.5538 28.6018 31.25 29.3396 31.25 30.2077C31.25 31.0757 31.5538 31.8136 32.1615 32.4212C32.7691 33.0289 33.5069 33.3327 34.375 33.3327ZM10.4167 35.416H39.5833V24.9993H10.4167V35.416Z" fill="#FF5B84"/>
</g>
</svg>
